<mxfile host="drawio-plugin" modified="2022-06-29T13:11:04.915Z" agent="5.0 (X11; Linux x86_64) AppleWebKit/537.36 (KHTML, like Gecko) Chrome/97.0.4692.45 Safari/537.36" version="15.5.4" etag="WdBcnTBqI085z5NwdcBg" type="embed"><diagram id="0FSFTsLz7AvHLE-TYyxf" name="Page-1"><mxGraphModel dx="869" dy="597" grid="1" gridSize="10" guides="1" tooltips="1" connect="1" arrows="1" fold="1" page="1" pageScale="1" pageWidth="850" pageHeight="1100" math="0" shadow="0"><root><mxCell id="0"/><mxCell id="1" parent="0"/><mxCell id="2" value="Client View" style="shape=umlLifeline;perimeter=lifelinePerimeter;whiteSpace=wrap;html=1;container=1;collapsible=0;recursiveResize=0;outlineConnect=0;" parent="1" vertex="1"><mxGeometry x="200" y="270" width="100" height="370" as="geometry"/></mxCell><mxCell id="3" value="" style="html=1;points=[];perimeter=orthogonalPerimeter;" parent="2" vertex="1"><mxGeometry x="45" y="150.16" width="10" height="10" as="geometry"/></mxCell><mxCell id="4" value="Client Connection" style="shape=umlLifeline;perimeter=lifelinePerimeter;whiteSpace=wrap;html=1;container=1;collapsible=0;recursiveResize=0;outlineConnect=0;size=40;" parent="1" vertex="1"><mxGeometry x="380" y="270" width="100" height="370" as="geometry"/></mxCell><mxCell id="5" value="" style="html=1;points=[];perimeter=orthogonalPerimeter;" parent="4" vertex="1"><mxGeometry x="44.89" y="140" width="10" height="10" as="geometry"/></mxCell><mxCell id="6" value="Game Server&lt;br&gt;Connection" style="shape=umlLifeline;perimeter=lifelinePerimeter;whiteSpace=wrap;html=1;container=1;collapsible=0;recursiveResize=0;outlineConnect=0;" parent="1" vertex="1"><mxGeometry x="910" y="270" width="100" height="370" as="geometry"/></mxCell><mxCell id="7" value="" style="html=1;points=[];perimeter=orthogonalPerimeter;" parent="6" vertex="1"><mxGeometry x="45" y="80.16" width="10" height="69.84" as="geometry"/></mxCell><mxCell id="8" value="Game Server" style="shape=umlLifeline;perimeter=lifelinePerimeter;whiteSpace=wrap;html=1;container=1;collapsible=0;recursiveResize=0;outlineConnect=0;" parent="1" vertex="1"><mxGeometry x="1090" y="270" width="100" height="370" as="geometry"/></mxCell><mxCell id="9" value="" style="html=1;points=[];perimeter=orthogonalPerimeter;" parent="8" vertex="1"><mxGeometry x="45" y="90" width="10" height="170" as="geometry"/></mxCell><mxCell id="22" style="edgeStyle=none;html=1;entryX=1.1;entryY=0.953;entryDx=0;entryDy=0;entryPerimeter=0;exitX=1.033;exitY=0.043;exitDx=0;exitDy=0;exitPerimeter=0;" parent="8" source="9" target="9" edge="1"><mxGeometry relative="1" as="geometry"><Array as="points"><mxPoint x="90" y="110"/><mxPoint x="90" y="220"/></Array></mxGeometry></mxCell><mxCell id="23" value="Timeout" style="edgeLabel;html=1;align=center;verticalAlign=middle;resizable=0;points=[];" parent="22" vertex="1" connectable="0"><mxGeometry x="-0.0937" y="-1" relative="1" as="geometry"><mxPoint x="26" y="3" as="offset"/></mxGeometry></mxCell><mxCell id="11" value="userDisconnected" style="html=1;verticalAlign=bottom;endArrow=open;dashed=1;endSize=8;entryX=0.986;entryY=-0.051;entryDx=0;entryDy=0;entryPerimeter=0;exitX=0.022;exitY=0.842;exitDx=0;exitDy=0;exitPerimeter=0;" parent="1" source="7" target="5" edge="1"><mxGeometry relative="1" as="geometry"><mxPoint x="950" y="420" as="sourcePoint"/><mxPoint x="509.89" y="380.15999999999997" as="targetPoint"/></mxGeometry></mxCell><mxCell id="13" value="&lt;br&gt;Disconnected" style="html=1;verticalAlign=bottom;endArrow=block;entryX=-0.068;entryY=-0.003;entryDx=0;entryDy=0;entryPerimeter=0;" parent="1" source="7" target="9" edge="1"><mxGeometry width="80" relative="1" as="geometry"><mxPoint x="1484.8900000000003" y="380.15999999999997" as="sourcePoint"/><mxPoint x="1130" y="360" as="targetPoint"/></mxGeometry></mxCell><mxCell id="14" value="send(userDisconnected)" style="html=1;verticalAlign=bottom;endArrow=open;dashed=1;endSize=8;exitX=0.028;exitY=0.333;exitDx=0;exitDy=0;exitPerimeter=0;" parent="1" source="9" target="7" edge="1"><mxGeometry relative="1" as="geometry"><mxPoint x="1344.89" y="410.15999999999997" as="sourcePoint"/><mxPoint x="1454.89" y="410.15999999999997" as="targetPoint"/></mxGeometry></mxCell><mxCell id="15" value="userDisconnected" style="html=1;verticalAlign=bottom;endArrow=open;dashed=1;endSize=8;exitX=0.041;exitY=1.002;exitDx=0;exitDy=0;exitPerimeter=0;" parent="1" source="5" target="3" edge="1"><mxGeometry relative="1" as="geometry"><mxPoint x="474.89" y="430.15999999999997" as="sourcePoint"/><mxPoint x="309.89" y="430.32000000000005" as="targetPoint"/></mxGeometry></mxCell><mxCell id="16" value="Client2 View" style="shape=umlLifeline;perimeter=lifelinePerimeter;whiteSpace=wrap;html=1;container=1;collapsible=0;recursiveResize=0;outlineConnect=0;" parent="1" vertex="1"><mxGeometry x="560" y="270" width="100" height="370" as="geometry"/></mxCell><mxCell id="17" value="" style="html=1;points=[];perimeter=orthogonalPerimeter;" parent="16" vertex="1"><mxGeometry x="45" y="160.16" width="10" height="10" as="geometry"/></mxCell><mxCell id="18" value="Client2 Connection" style="shape=umlLifeline;perimeter=lifelinePerimeter;whiteSpace=wrap;html=1;container=1;collapsible=0;recursiveResize=0;outlineConnect=0;" parent="1" vertex="1"><mxGeometry x="730" y="270" width="100" height="370" as="geometry"/></mxCell><mxCell id="19" value="" style="html=1;points=[];perimeter=orthogonalPerimeter;" parent="18" vertex="1"><mxGeometry x="45" y="150" width="10" height="10" as="geometry"/></mxCell><mxCell id="20" value="userDisconnected" style="html=1;verticalAlign=bottom;endArrow=open;dashed=1;endSize=8;entryX=0.848;entryY=0.005;entryDx=0;entryDy=0;entryPerimeter=0;" parent="1" source="7" target="19" edge="1"><mxGeometry relative="1" as="geometry"><mxPoint x="960" y="430" as="sourcePoint"/><mxPoint x="880" y="420" as="targetPoint"/></mxGeometry></mxCell><mxCell id="21" value="userDisconnected" style="html=1;verticalAlign=bottom;endArrow=open;dashed=1;endSize=8;" parent="1" source="19" target="17" edge="1"><mxGeometry relative="1" as="geometry"><mxPoint x="780" y="440" as="sourcePoint"/><mxPoint x="700" y="440" as="targetPoint"/></mxGeometry></mxCell><mxCell id="38" value="" style="html=1;points=[];perimeter=orthogonalPerimeter;" vertex="1" parent="1"><mxGeometry x="245" y="549.16" width="10" height="10" as="geometry"/></mxCell><mxCell id="39" value="" style="html=1;points=[];perimeter=orthogonalPerimeter;" vertex="1" parent="1"><mxGeometry x="424.89" y="539" width="10" height="10" as="geometry"/></mxCell><mxCell id="40" value="" style="html=1;points=[];perimeter=orthogonalPerimeter;" vertex="1" parent="1"><mxGeometry x="955" y="520" width="10" height="29" as="geometry"/></mxCell><mxCell id="44" value="userResigned" style="html=1;verticalAlign=bottom;endArrow=open;dashed=1;endSize=8;entryX=0.986;entryY=-0.051;entryDx=0;entryDy=0;entryPerimeter=0;exitX=-0.042;exitY=0.63;exitDx=0;exitDy=0;exitPerimeter=0;" edge="1" parent="1" source="40" target="39"><mxGeometry relative="1" as="geometry"><mxPoint x="950" y="549" as="sourcePoint"/><mxPoint x="509.89" y="509.15999999999997" as="targetPoint"/></mxGeometry></mxCell><mxCell id="46" value="send(userResigned)" style="html=1;verticalAlign=bottom;endArrow=open;dashed=1;endSize=8;exitX=-0.167;exitY=0.992;exitDx=0;exitDy=0;exitPerimeter=0;" edge="1" parent="1" source="9" target="40"><mxGeometry relative="1" as="geometry"><mxPoint x="1145.22" y="528.8" as="sourcePoint"/><mxPoint x="1454.89" y="539.16" as="targetPoint"/></mxGeometry></mxCell><mxCell id="47" value="userResigned" style="html=1;verticalAlign=bottom;endArrow=open;dashed=1;endSize=8;exitX=0.041;exitY=1.002;exitDx=0;exitDy=0;exitPerimeter=0;" edge="1" parent="1" source="39" target="38"><mxGeometry relative="1" as="geometry"><mxPoint x="474.89" y="559.16" as="sourcePoint"/><mxPoint x="309.89" y="559.32" as="targetPoint"/></mxGeometry></mxCell><mxCell id="48" value="" style="html=1;points=[];perimeter=orthogonalPerimeter;" vertex="1" parent="1"><mxGeometry x="605" y="559.16" width="10" height="10" as="geometry"/></mxCell><mxCell id="49" value="" style="html=1;points=[];perimeter=orthogonalPerimeter;" vertex="1" parent="1"><mxGeometry x="775" y="549" width="10" height="10" as="geometry"/></mxCell><mxCell id="50" value="userResigned" style="html=1;verticalAlign=bottom;endArrow=open;dashed=1;endSize=8;entryX=0.848;entryY=0.005;entryDx=0;entryDy=0;entryPerimeter=0;" edge="1" parent="1" source="40" target="49"><mxGeometry relative="1" as="geometry"><mxPoint x="960" y="559" as="sourcePoint"/><mxPoint x="880" y="549" as="targetPoint"/></mxGeometry></mxCell><mxCell id="51" value="userResigned" style="html=1;verticalAlign=bottom;endArrow=open;dashed=1;endSize=8;" edge="1" parent="1" source="49" target="48"><mxGeometry relative="1" as="geometry"><mxPoint x="780" y="569" as="sourcePoint"/><mxPoint x="700" y="569" as="targetPoint"/></mxGeometry></mxCell></root></mxGraphModel></diagram></mxfile>